<svg xmlns="http://www.w3.org/2000/svg" viewBox="0 0 1920 1080" fill="none">
  <defs>
    <radialGradient id="starGlowSection" cx="50%" cy="50%" r="50%">
      <stop offset="0%" style="stop-color:rgb(255,255,255);stop-opacity:1" />
      <stop offset="50%" style="stop-color:rgb(200,230,255);stop-opacity:0.6" />
      <stop offset="100%" style="stop-color:rgb(100,180,255);stop-opacity:0" />
    </radialGradient>

    <!-- Five-pointed star shape -->
    <path id="star5Section" d="M 0,-10 L 2.4,-3.1 L 9.5,-3.1 L 3.8,1.2 L 6.2,8.1 L 0,3.8 L -6.2,8.1 L -3.8,1.2 L -9.5,-3.1 L -2.4,-3.1 Z"/>
  </defs>

  {/* Background stars scattered around */}
  {/* Top left quadrant */}
  <g>
    <use href="#star5Section" transform="translate(200, 150) scale(0.9)" fill="white" opacity="1"/>
    <circle cx="200" cy="150" r="6" fill="url(#starGlowSection)" opacity="0.5"/>
  </g>

  <g>
    <use href="#star5Section" transform="translate(350, 80) scale(0.8)" fill="white" opacity="0.95"/>
    <circle cx="350" cy="80" r="5" fill="url(#starGlowSection)" opacity="0.45"/>
  </g>

  <g>
    <use href="#star5Section" transform="translate(150, 250) scale(0.95)" fill="white" opacity="1"/>
    <circle cx="150" cy="250" r="5.5" fill="url(#starGlowSection)" opacity="0.48"/>
  </g>

  <g>
    <use href="#star5Section" transform="translate(450, 180) scale(0.85)" fill="white" opacity="0.96"/>
    <circle cx="450" cy="180" r="5.2" fill="url(#starGlowSection)" opacity="0.46"/>
  </g>

  {/* Top right quadrant */}
  <g>
    <use href="#star5Section" transform="translate(1550, 120) scale(0.92)" fill="white" opacity="1"/>
    <circle cx="1550" cy="120" r="5.5" fill="url(#starGlowSection)" opacity="0.5"/>
  </g>

  <g>
    <use href="#star5Section" transform="translate(1680, 180) scale(0.85)" fill="white" opacity="0.95"/>
    <circle cx="1680" cy="180" r="5" fill="url(#starGlowSection)" opacity="0.46"/>
  </g>

  <g>
    <use href="#star5Section" transform="translate(1420, 240) scale(0.9)" fill="white" opacity="1"/>
    <circle cx="1420" cy="240" r="5.5" fill="url(#starGlowSection)" opacity="0.48"/>
  </g>

  <g>
    <use href="#star5Section" transform="translate(1720, 300) scale(0.88)" fill="white" opacity="0.97"/>
    <circle cx="1720" cy="300" r="5.3" fill="url(#starGlowSection)" opacity="0.47"/>
  </g>

  {/* Bottom left quadrant */}
  <g>
    <use href="#star5Section" transform="translate(180, 850) scale(0.9)" fill="white" opacity="1"/>
    <circle cx="180" cy="850" r="5.5" fill="url(#starGlowSection)" opacity="0.48"/>
  </g>

  <g>
    <use href="#star5Section" transform="translate(320, 920) scale(0.92)" fill="white" opacity="1"/>
    <circle cx="320" cy="920" r="5.5" fill="url(#starGlowSection)" opacity="0.49"/>
  </g>

  <g>
    <use href="#star5Section" transform="translate(250, 780) scale(0.87)" fill="white" opacity="0.96"/>
    <circle cx="250" cy="780" r="5.2" fill="url(#starGlowSection)" opacity="0.47"/>
  </g>

  <g>
    <use href="#star5Section" transform="translate(400, 1000) scale(0.91)" fill="white" opacity="0.98"/>
    <circle cx="400" cy="1000" r="5.4" fill="url(#starGlowSection)" opacity="0.48"/>
  </g>

  {/* Bottom right quadrant */}
  <g>
    <use href="#star5Section" transform="translate(1650, 880) scale(0.95)" fill="white" opacity="1"/>
    <circle cx="1650" cy="880" r="6" fill="url(#starGlowSection)" opacity="0.52"/>
  </g>

  <g>
    <use href="#star5Section" transform="translate(1550, 820) scale(0.85)" fill="white" opacity="0.98"/>
    <circle cx="1550" cy="820" r="5.2" fill="url(#starGlowSection)" opacity="0.47"/>
  </g>

  <g>
    <use href="#star5Section" transform="translate(1750, 950) scale(0.93)" fill="white" opacity="1"/>
    <circle cx="1750" cy="950" r="5.6" fill="url(#starGlowSection)" opacity="0.5"/>
  </g>

  <g>
    <use href="#star5Section" transform="translate(1480, 1020) scale(0.89)" fill="white" opacity="0.97"/>
    <circle cx="1480" cy="1020" r="5.3" fill="url(#starGlowSection)" opacity="0.48"/>
  </g>

  {/* Center scattered stars */}
  <g>
    <use href="#star5Section" transform="translate(700, 300) scale(0.8)" fill="white" opacity="0.95"/>
    <circle cx="700" cy="300" r="5" fill="url(#starGlowSection)" opacity="0.45"/>
  </g>

  <g>
    <use href="#star5Section" transform="translate(1100, 250) scale(0.85)" fill="white" opacity="0.96"/>
    <circle cx="1100" cy="250" r="5.2" fill="url(#starGlowSection)" opacity="0.46"/>
  </g>

  <g>
    <use href="#star5Section" transform="translate(720, 650) scale(0.9)" fill="white" opacity="1"/>
    <circle cx="720" cy="650" r="5.5" fill="url(#starGlowSection)" opacity="0.48"/>
  </g>

  <g>
    <use href="#star5Section" transform="translate(1150, 720) scale(0.9)" fill="white" opacity="1"/>
    <circle cx="1150" cy="720" r="5.5" fill="url(#starGlowSection)" opacity="0.49"/>
  </g>

  <g>
    <use href="#star5Section" transform="translate(850, 450) scale(0.87)" fill="white" opacity="0.96"/>
    <circle cx="850" cy="450" r="5.2" fill="url(#starGlowSection)" opacity="0.47"/>
  </g>

  <g>
    <use href="#star5Section" transform="translate(960, 540) scale(0.91)" fill="white" opacity="0.98"/>
    <circle cx="960" cy="540" r="5.4" fill="url(#starGlowSection)" opacity="0.48"/>
  </g>

  {/* Smaller ambient stars (twinkling points) */}
  <use href="#star5Section" transform="translate(500, 450) scale(0.5)" fill="white" opacity="0.8"/>
  <use href="#star5Section" transform="translate(620, 520) scale(0.45)" fill="white" opacity="0.75"/>
  <use href="#star5Section" transform="translate(1320, 480) scale(0.5)" fill="white" opacity="0.82"/>
  <use href="#star5Section" transform="translate(1420, 550) scale(0.5)" fill="white" opacity="0.8"/>
  <use href="#star5Section" transform="translate(540, 600) scale(0.45)" fill="white" opacity="0.76"/>
  <use href="#star5Section" transform="translate(1380, 380) scale(0.5)" fill="white" opacity="0.81"/>
  <use href="#star5Section" transform="translate(450, 350) scale(0.42)" fill="white" opacity="0.7"/>
  <use href="#star5Section" transform="translate(800, 500) scale(0.45)" fill="white" opacity="0.75"/>
  <use href="#star5Section" transform="translate(1200, 450) scale(0.42)" fill="white" opacity="0.72"/>
  <use href="#star5Section" transform="translate(1500, 600) scale(0.5)" fill="white" opacity="0.78"/>
  <use href="#star5Section" transform="translate(300, 550) scale(0.48)" fill="white" opacity="0.77"/>
  <use href="#star5Section" transform="translate(1600, 750) scale(0.46)" fill="white" opacity="0.74"/>
  <use href="#star5Section" transform="translate(650, 820) scale(0.5)" fill="white" opacity="0.79"/>
  <use href="#star5Section" transform="translate(1050, 900) scale(0.47)" fill="white" opacity="0.76"/>
  <use href="#star5Section" transform="translate(380, 200) scale(0.44)" fill="white" opacity="0.73"/>
</svg>
