<svg xmlns="http://www.w3.org/2000/svg" viewBox="0 0 430 932" fill="none">
  <defs>
    <radialGradient id="starGlowSectionMobile" cx="50%" cy="50%" r="50%">
      <stop offset="0%" style="stop-color:rgb(255,255,255);stop-opacity:1" />
      <stop offset="50%" style="stop-color:rgb(200,230,255);stop-opacity:0.6" />
      <stop offset="100%" style="stop-color:rgb(100,180,255);stop-opacity:0" />
    </radialGradient>

    <!-- Five-pointed star shape -->
    <path id="starSectionMobile" d="M 0,-10 L 2.4,-3.1 L 9.5,-3.1 L 3.8,1.2 L 6.2,8.1 L 0,3.8 L -6.2,8.1 L -3.8,1.2 L -9.5,-3.1 L -2.4,-3.1 Z"/>
  </defs>

  {/* Background stars scattered around */}
  {/* Top area */}
  <g>
    <use href="#starSectionMobile" transform="translate(50, 80) scale(0.55)" fill="white" opacity="1"/>
    <circle cx="50" cy="80" r="3" fill="url(#starGlowSectionMobile)" opacity="0.5"/>
  </g>

  <g>
    <use href="#starSectionMobile" transform="translate(120, 120) scale(0.5)" fill="white" opacity="0.95"/>
    <circle cx="120" cy="120" r="2.8" fill="url(#starGlowSectionMobile)" opacity="0.45"/>
  </g>

  <g>
    <use href="#starSectionMobile" transform="translate(380, 100) scale(0.58)" fill="white" opacity="1"/>
    <circle cx="380" cy="100" r="3.2" fill="url(#starGlowSectionMobile)" opacity="0.48"/>
  </g>

  <g>
    <use href="#starSectionMobile" transform="translate(250, 150) scale(0.52)" fill="white" opacity="0.96"/>
    <circle cx="250" cy="150" r="2.9" fill="url(#starGlowSectionMobile)" opacity="0.46"/>
  </g>

  {/* Middle area */}
  <g>
    <use href="#starSectionMobile" transform="translate(70, 400) scale(0.5)" fill="white" opacity="0.95"/>
    <circle cx="70" cy="400" r="2.8" fill="url(#starGlowSectionMobile)" opacity="0.45"/>
  </g>

  <g>
    <use href="#starSectionMobile" transform="translate(360, 450) scale(0.55)" fill="white" opacity="1"/>
    <circle cx="360" cy="450" r="3" fill="url(#starGlowSectionMobile)" opacity="0.48"/>
  </g>

  <g>
    <use href="#starSectionMobile" transform="translate(200, 380) scale(0.53)" fill="white" opacity="0.97"/>
    <circle cx="200" cy="380" r="2.9" fill="url(#starGlowSectionMobile)" opacity="0.47"/>
  </g>

  <g>
    <use href="#starSectionMobile" transform="translate(150, 520) scale(0.56)" fill="white" opacity="1"/>
    <circle cx="150" cy="520" r="3.1" fill="url(#starGlowSectionMobile)" opacity="0.49"/>
  </g>

  {/* Bottom area */}
  <g>
    <use href="#starSectionMobile" transform="translate(90, 750) scale(0.55)" fill="white" opacity="1"/>
    <circle cx="90" cy="750" r="3" fill="url(#starGlowSectionMobile)" opacity="0.48"/>
  </g>

  <g>
    <use href="#starSectionMobile" transform="translate(340, 800) scale(0.58)" fill="white" opacity="1"/>
    <circle cx="340" cy="800" r="3.2" fill="url(#starGlowSectionMobile)" opacity="0.5"/>
  </g>

  <g>
    <use href="#starSectionMobile" transform="translate(180, 820) scale(0.54)" fill="white" opacity="0.98"/>
    <circle cx="180" cy="820" r="3" fill="url(#starGlowSectionMobile)" opacity="0.48"/>
  </g>

  <g>
    <use href="#starSectionMobile" transform="translate(280, 880) scale(0.57)" fill="white" opacity="1"/>
    <circle cx="280" cy="880" r="3.1" fill="url(#starGlowSectionMobile)" opacity="0.49"/>
  </g>

  {/* Smaller ambient stars (twinkling points) */}
  <use href="#starSectionMobile" transform="translate(150, 250) scale(0.35)" fill="white" opacity="0.8"/>
  <use href="#starSectionMobile" transform="translate(280, 300) scale(0.32)" fill="white" opacity="0.75"/>
  <use href="#starSectionMobile" transform="translate(100, 550) scale(0.35)" fill="white" opacity="0.82"/>
  <use href="#starSectionMobile" transform="translate(350, 620) scale(0.35)" fill="white" opacity="0.8"/>
  <use href="#starSectionMobile" transform="translate(180, 680) scale(0.32)" fill="white" opacity="0.76"/>
  <use href="#starSectionMobile" transform="translate(300, 150) scale(0.35)" fill="white" opacity="0.81"/>
  <use href="#starSectionMobile" transform="translate(220, 500) scale(0.32)" fill="white" opacity="0.75"/>
  <use href="#starSectionMobile" transform="translate(60, 320) scale(0.35)" fill="white" opacity="0.78"/>
  <use href="#starSectionMobile" transform="translate(320, 240) scale(0.33)" fill="white" opacity="0.77"/>
  <use href="#starSectionMobile" transform="translate(130, 650) scale(0.36)" fill="white" opacity="0.79"/>
  <use href="#starSectionMobile" transform="translate(370, 350) scale(0.34)" fill="white" opacity="0.76"/>
  <use href="#starSectionMobile" transform="translate(40, 200) scale(0.32)" fill="white" opacity="0.74"/>
</svg>
